<svg version="1.1" xmlns="http://www.w3.org/2000/svg" xmlns:xlink="http://www.w3.org/1999/xlink" width="164.59034" height="267.22501" viewBox="0,0,164.59034,267.22501"><g transform="translate(-238.14814,-46.3875)"><g data-paper-data="{&quot;isPaintingLayer&quot;:true}" fill-rule="nonzero" stroke-linejoin="miter" stroke-miterlimit="10" stroke-dasharray="" stroke-dashoffset="0" style="mix-blend-mode: normal"><path d="M259.28371,313.61251v-267.22501h123.18203v267.22501z" fill-opacity="0.01" fill="#000000" stroke="none" stroke-width="0" stroke-linecap="butt"/><path d="M251.83996,139.84618c0,-1.65654 -5.80143,-1.9233 -5.80143,-1.9233c0,0 6.69584,-8.87746 7.35214,-11.71771c6.65986,-28.82218 23.99043,-56.21969 66.68631,-56.74538c45.68643,-0.56252 68.23702,35.01087 68.23702,70.3864c0,0.66795 3.07779,7.31159 4.43041,10.36634c2.27861,5.14598 3.33715,7.45866 3.33715,7.45866c0,0 -2.64733,-1.66693 -4.82385,-3.56682c-2.14071,-1.86864 -3.80963,-3.97893 -3.99144,-3.01508c-0.43459,2.30399 -0.59561,10.92242 -4.12876,19.9176c-3.49395,8.89536 -10.36285,18.18124 -10.36285,18.18124c0,0 -2.29192,-5.28642 -3.77673,-3.14158c-6.07718,8.77862 -11.2964,15.30957 -11.2964,15.30957c0,0 -2.40974,-4.97718 -4.47106,-3.86765c-9.32569,5.01966 -20.06286,7.91078 -31.65348,7.91078c-12.60656,0 -24.772,-3.56633 -35.27102,-9.52744c-2.72845,-1.54916 -0.82623,4.38789 -0.82623,4.38789c0,0 -7.93843,-5.19677 -13.15685,-11.00681c-6.08759,-6.77777 -9.73663,-14.57056 -12.13914,-18.68944c-0.34082,-0.58431 -4.01999,1.58785 -5.934,2.01254c-2.96082,0.65696 -4.48364,-0.08182 -4.48364,-0.08182c0,0 2.67098,-3.37669 3.55098,-5.15497c0.94364,-1.90688 1.93325,-5.92746 1.93325,-5.92746c0,0 -2.66402,1.90888 -4.05965,2.38502c-1.48595,0.50696 -4.60208,0.57008 -4.60208,0.57008c0,0 4.39229,-5.64339 5.74307,-11.5602c1.27257,-5.57422 -0.4917,-11.39111 -0.4917,-12.96047z" fill="#000000" stroke="#000000" stroke-width="0" stroke-linecap="butt"/><path d="M286.75003,307.50001l15.14285,-131.8421l37.78325,-0.15789l13.57389,132z" fill="#ffffff" stroke="#000000" stroke-width="2" stroke-linecap="butt"/><path d="M299.70027,204.11264l3.12142,-26.32765l35.83075,-0.14203l2.76735,26.1059c0,0 -7.51543,4.19603 -21.55904,4.50964c-12.48458,0.27879 -20.16049,-4.14586 -20.16049,-4.14586z" fill="#e6e6e6" stroke="#000000" stroke-width="0" stroke-linecap="butt"/><path d="M284.89288,309.07142l15.98864,-134.9812l6.18991,20.81604c0,0 -1.49092,26.11711 12.8878,25.90261c15.52065,-0.01426 13.7034,-25.64499 13.7034,-25.64499l7.11248,-21.23531l14.33204,135.14286z" fill="#737373" stroke="#000000" stroke-width="0" stroke-linecap="butt"/><path d="M284.89288,309.07142l7.57241,-63.92867c0,0 16.23776,16.2 25.81441,20.60043c9.9812,4.58631 32.90937,6.38288 32.90937,6.38288l3.91809,36.94538z" fill="#000000" stroke="#000000" stroke-width="0" stroke-linecap="butt"/><path d="M287.73747,285.05656l4.72782,-39.91379c0,0 16.23776,16.2 25.81441,20.60043c0,0 -3.94939,11.44836 -8.67966,14.43954c-5.36929,3.39527 -21.86258,4.87383 -21.86258,4.87383z" fill="#484848" stroke="#000000" stroke-width="0" stroke-linecap="butt"/><path d="M287.26561,289.04015l0.89556,-7.56059c0,0 14.40491,-1.28208 19.66887,-3.65082c4.56432,-2.0539 10.11633,-9.75222 10.11633,-9.75222l5.90936,0.38288c0,0 -7.03332,12.39337 -12.95472,15.72397c-6.25682,3.51925 -23.6354,4.85678 -23.6354,4.85678z" fill="#6e6e6e" stroke="#000000" stroke-width="0" stroke-linecap="butt"/><path d="M292.08514,248.35211c0.39063,-3.2978 0.77875,-6.57442 0.77875,-6.57442c0,0 16.00904,18.52885 26.24516,22.91628c8.78472,3.76533 31.48574,1.82847 31.48574,1.82847l1.0948,10.32328c0,0 -19.58674,1.93342 -34.15424,-3.90776c-16.77267,-6.72539 -25.45021,-24.58584 -25.45021,-24.58584z" fill="#b3b3b3" stroke="#000000" stroke-width="0" stroke-linecap="butt"/><path d="M255.83995,136.84616c0,-33.30185 28.7599,-60.29833 64.23702,-60.29833c35.47712,0 64.23702,26.99649 64.23702,60.29833c0,33.30185 -28.7599,60.29833 -64.23702,60.29833c-35.47712,0 -64.23702,-26.99649 -64.23702,-60.29833z" fill="#ffffff" stroke="#000000" stroke-width="2" stroke-linecap="butt"/><path d="M256.563,136.89999c0,-0.72799 5.20666,55.91939 63.36046,56.93429c55.56352,0.9697 63.51358,-57.95314 63.51358,-56.93429c0,32.80479 -28.40173,59.39833 -63.43702,59.39833c-35.03529,0 -63.43702,-26.59354 -63.43702,-59.39833z" fill="#e6e6e6" stroke="#000000" stroke-width="0" stroke-linecap="butt"/><path d="M269.39016,137.27564c0,-12.968 10.51265,-23.48065 23.48065,-23.48065c12.968,0 23.48065,10.51265 23.48065,23.48065c0,12.968 -10.51265,23.48065 -23.48065,23.48065c-12.968,0 -23.48065,-10.51265 -23.48065,-23.48065z" fill="#ffffff" stroke="#000000" stroke-width="2" stroke-linecap="butt"/><path d="M276.45554,137c0,-9.12808 7.39976,-16.52784 16.52783,-16.52784c9.12808,0 16.52784,7.39977 16.52784,16.52784c0,9.12808 -7.39977,16.52784 -16.52784,16.52784c-9.12808,0 -16.52783,-7.39977 -16.52783,-16.52784z" fill="#000000" stroke="none" stroke-width="0" stroke-linecap="butt"/><path d="M332.61664,176.65644h-25.10959" fill="none" stroke="#000000" stroke-width="2" stroke-linecap="round"/><path d="M347.12928,160.75628c-12.968,0 -23.48065,-10.51265 -23.48065,-23.48065c0,-12.968 10.51265,-23.48065 23.48065,-23.48065c12.968,0 23.48065,10.51265 23.48065,23.48065c0,12.968 -10.51265,23.48065 -23.48065,23.48065z" data-paper-data="{&quot;index&quot;:null}" fill="#ffffff" stroke="#000000" stroke-width="2" stroke-linecap="butt"/><path d="M347.0167,153.52785c-9.12807,0 -16.52783,-7.39977 -16.52783,-16.52784c0,-9.12808 7.39977,-16.52784 16.52783,-16.52784c9.12807,0 16.52783,7.39977 16.52783,16.52784c0,9.12808 -7.39977,16.52784 -16.52783,16.52784z" data-paper-data="{&quot;index&quot;:null}" fill="#000000" stroke="none" stroke-width="0" stroke-linecap="butt"/><path d="M282.02785,108.46717c0,0 6.70895,-5.16922 11.79721,-6.36355c5.08827,-1.19433 12.33413,0.69937 12.33413,0.69937c0,0 -8.03812,-0.06028 -11.96762,0.86207c-4.10648,0.96389 -12.16372,4.80211 -12.16372,4.80211z" fill="#000000" stroke="none" stroke-width="0" stroke-linecap="butt"/><path d="M345.96239,103.66507c-3.9295,-0.92235 -11.96762,-0.86207 -11.96762,-0.86207c0,0 7.24586,-1.8937 12.33413,-0.69937c5.08826,1.19433 11.79721,6.36355 11.79721,6.36355c0,0 -8.05724,-3.83822 -12.16372,-4.80211z" data-paper-data="{&quot;index&quot;:null}" fill="#000000" stroke="none" stroke-width="0" stroke-linecap="butt"/><path d="M271.80996,127.03138c3.82549,-7.77858 11.82905,-13.13175 21.0829,-13.13175c9.5052,0 17.69124,5.6479 21.38529,13.77085c0.34105,0.74994 -9.42705,-7.4433 -21.33771,-7.57184c-9.90688,-0.10692 -21.13048,6.93274 -21.13048,6.93274z" fill="#ffffff" stroke="#000000" stroke-width="2" stroke-linecap="butt"/><path d="M325.95282,126.88852c3.82549,-7.77858 11.82905,-13.13175 21.0829,-13.13175c9.5052,0 17.69124,5.6479 21.38529,13.77085c0.34105,0.74994 -10.87345,-7.69864 -21.33771,-7.57185c-10.35786,0.1255 -21.13048,6.93275 -21.13048,6.93275z" fill="#ffffff" stroke="#000000" stroke-width="2" stroke-linecap="butt"/><path d="M292.79758,155.53749c12.77911,-0.35564 21.67876,-9.32179 21.33771,-8.57184c-3.69405,8.12294 -11.88009,13.77085 -21.38529,13.77085c-9.25386,0 -17.25742,-5.35317 -21.0829,-13.13175c0,0 9.51778,8.25592 21.13048,7.93274z" data-paper-data="{&quot;index&quot;:null}" fill="#000000" stroke="#000000" stroke-width="2" stroke-linecap="butt"/><path d="M347.0833,155.53749c14.61936,-0.35108 21.67876,-9.32179 21.33771,-8.57185c-3.69405,8.12294 -11.88009,13.77085 -21.38529,13.77085c-9.25386,0 -17.25742,-5.35318 -21.0829,-13.13175c0,0 8.22052,8.24278 21.13048,7.93275z" data-paper-data="{&quot;index&quot;:null}" fill="#000000" stroke="#000000" stroke-width="2" stroke-linecap="butt"/><path d="M261.36235,107.13722c11.42496,-22.68233 31.40973,-33.07142 60.56473,-32.85267c24.16321,0.18129 39.14424,9.27509 47.64651,17.23625c0.95139,0.89084 -11.16905,5.58091 -18.25999,7.52146c-15.29703,4.18628 -30.35723,6.25195 -30.35723,6.25195l6.65013,-11.17032c0,0 -23.70536,7.34319 -34.98048,9.59002c-11.17264,2.22641 -31.26367,3.4233 -31.26367,3.4233z" fill="#000000" stroke="none" stroke-width="0" stroke-linecap="butt"/><path d="M259.9894,121.29972l-3.72004,1.31784c0,0 -15.68628,-24.9126 -5.29278,-35.3354c11.91381,-11.94738 62.22821,-33.60614 69.7752,-33.45578c8.52854,0.16992 51.24181,20.0584 63.12077,32.2229c10.02574,10.26674 -0.74888,37.09541 -0.74888,37.09541l-3.67424,-2.10854c0,0 4.05365,-22.63966 -4.7649,-31.58872c-10.46434,-10.6192 -45.94073,-28.12084 -53.97419,-27.9776c-8.51656,0.15185 -50.81685,17.78553 -61.86549,28.66462c-8.5678,8.43631 1.14455,31.16527 1.14455,31.16527z" fill="#484848" stroke="#000000" stroke-width="0" stroke-linecap="butt"/><path d="M259.9894,121.13962l-3.72004,1.43219c0,0 -15.68628,-27.07441 -5.29278,-38.40166c11.91381,-12.98413 62.22821,-36.52233 69.7752,-36.35892c8.52854,0.18467 51.24181,21.79899 63.12077,35.01908c10.02574,11.15765 -0.74888,40.31439 -0.74888,40.31439l-3.67424,-2.29151c0,0 4.05365,-24.60423 -4.7649,-34.32985c-10.46434,-11.54069 -45.94073,-30.56106 -53.97419,-30.40539c-8.51656,0.16503 -50.81685,19.32889 -61.86549,31.15202c-8.5678,9.16838 1.14455,33.86966 1.14455,33.86966z" fill="#727272" stroke="#000000" stroke-width="0" stroke-linecap="butt"/><path d="M238.14814,137.32988c0,-12.51846 9.08054,-22.66667 20.28196,-22.66667c1.01424,0 1.18635,45.33333 0,45.33333c-11.20142,0 -20.28196,-10.14821 -20.28196,-22.66666z" fill="#b5b5b5" stroke="#000000" stroke-width="0" stroke-linecap="butt"/><path d="M253.21877,161.0763v-46.252c0,0 0.0561,-3.84241 5.07081,-3.82775c4.16512,0.01217 5.07017,3.82775 5.07017,3.82775v46.252c0,0 -0.71875,3.25359 -5.07017,3.25359c-3.8184,0 -5.07081,-3.25359 -5.07081,-3.25359z" fill="#474747" stroke="#000000" stroke-width="0" stroke-linecap="butt"/><path d="M382.45651,159.99655c-1.18635,0 -1.01423,-45.33333 0,-45.33333c11.20142,0 20.28197,10.14821 20.28197,22.66667c0,12.51845 -9.08055,22.66666 -20.28197,22.66666z" data-paper-data="{&quot;index&quot;:null}" fill="#b5b5b5" stroke="#000000" stroke-width="0" stroke-linecap="butt"/><path d="M376.41877,161.0763v-46.252c0,0 0.05611,-3.84241 5.07081,-3.82775c4.16512,0.01217 5.07017,3.82775 5.07017,3.82775v46.252c0,0 -0.71875,3.25359 -5.07017,3.25359c-3.8184,0 -5.07081,-3.25359 -5.07081,-3.25359z" fill="#474747" stroke="#000000" stroke-width="0" stroke-linecap="butt"/><path d="M292.55625,158.87111l-0.31493,12.36524l-15.88506,12.83476" fill="none" stroke="#000000" stroke-width="6" stroke-linecap="round"/><path d="M364.15625,184.07111l-15.88506,-12.83476l-0.31493,-12.36524" data-paper-data="{&quot;index&quot;:null}" fill="none" stroke="#000000" stroke-width="6" stroke-linecap="round"/><path d="M311.59375,255.78517v-23.33333h18.66667v23.33333z" fill="#464646" stroke="none" stroke-width="0" stroke-linecap="butt"/><path d="M305.59375,242.45184v-14.66667h12.33333v14.66667z" fill="#b2b2b2" stroke="none" stroke-width="0" stroke-linecap="butt"/><path d="M325.92708,263.1185v-17.33334h13.33333v17.33334z" fill="#b2b2b2" stroke="none" stroke-width="0" stroke-linecap="butt"/></g></g></svg>